<?xml version="1.0" standalone="no"?>
<!DOCTYPE svg PUBLIC "-//W3C//DTD SVG 20010904//EN"
 "http://www.w3.org/TR/2001/REC-SVG-20010904/DTD/svg10.dtd">
<svg version="1.0" xmlns="http://www.w3.org/2000/svg"
 width="960.000000pt" height="960.000000pt" viewBox="0 0 960.000000 960.000000"
 preserveAspectRatio="xMidYMid meet">
<metadata>
Created by potrace 1.11, written by Peter Selinger 2001-2013
</metadata>
<g transform="translate(0.000000,960.000000) scale(0.100000,-0.100000)"
fill="#000000" stroke="none">
<path d="M0 4800 l0 -4800 4800 0 4800 0 0 4800 0 4800 -4800 0 -4800 0 0
-4800z m7431 1565 c-241 -242 -689 -692 -994 -1000 l-556 -560 999 -1000 1000
-1000 -462 -462 -463 -463 -1000 1000 -1000 1000 -1000 -1000 -1000 -1000
-459 459 c-252 252 -459 461 -459 466 1 4 448 455 994 1002 l993 995 -997 996
-997 996 437 440 c241 241 449 449 463 461 l25 23 998 -992 998 -991 997 998
997 997 462 -462 463 -463 -439 -440z"/>
</g>
</svg>
